# xmcd
#
# Track frame offsets: 
#        150
#        26798
#        38964
#        55223
#        86758
#        98721
#        119176
#        140847
#        157540
#        175298
#        181718
#
# Disc length: 2583 seconds
#
# Revision: 0
# Processed by: cddbd v1.5.2PL0 Copyright (c) Steve Scherf et al.
# Submitted via: ExactAudioCopy v1.0b3
#
DISCID=920a150b
DTITLE=Various Artist - Svenska Skratt [CD 12)
DYEAR=2011
DGENRE=Comedy
TTITLE0=Sten-Åke Cederhök and Tomas von Brömssen - Hälsa På Oss I Haga
TTITLE1=Sten-Åke Cederhök, Sonya Hedenbratt, Nisse Peters, Rulle Lövgr
TTITLE1=en, Ingvor Wennberg, Elvy Bengtsson - Knö Dej In
TTITLE2=Sten-Åke Cederhök and Tomas von Brömssen - Jubel I Busken
TTITLE3=Tomas von Brömssen - Roliga Historier
TTITLE4=Sonya Hedenbratt - Min Man 'Lelle Rickard'
TTITLE5=Rulle Lövgren and Nisse Peters - På Brandstationen
TTITLE6=Sten-Åke Cederhök - Du Sa Att Vi Skulle Gifta Oss Till Hösten,
TTITLE6=Östen
TTITLE7=Sonya Hedenbratt and Tomas von Brömssen - På Samma Scen Som Dej
TTITLE8=Sten-Åke Cederhök - Tildas Man
TTITLE9=Sonya Hedenbratt - Låt Hjärtat Va' Me'
TTITLE10=Sten-Åke Cederhök, Sonya Hedenbratt, Tomas von Brömssen - Swi
TTITLE10=ngpjatten
EXTD=
EXTT0=
EXTT1=
EXTT2=
EXTT3=
EXTT4=
EXTT5=
EXTT6=
EXTT7=
EXTT8=
EXTT9=
EXTT10=
PLAYORDER=
